<?xml version="1.0" standalone="no"?>
<!DOCTYPE svg PUBLIC "-//W3C//DTD SVG 20010904//EN"
 "http://www.w3.org/TR/2001/REC-SVG-20010904/DTD/svg10.dtd">
<svg version="1.0" xmlns="http://www.w3.org/2000/svg"
 width="930.000000pt" height="1280.000000pt" viewBox="0 0 930.000000 1280.000000"
 preserveAspectRatio="xMidYMid meet">
<metadata>
Created by potrace 1.15, written by Peter Selinger 2001-2017
</metadata>
<g transform="translate(0.000000,1280.000000) scale(0.100000,-0.100000)"
fill="#e91e63" stroke="none">
<path d="M4988 12790 c-15 -9 -12 -16 23 -70 74 -110 213 -470 295 -760 l16
-59 -61 -71 c-146 -170 -240 -351 -320 -620 -88 -295 -141 -686 -141 -1045 l0
-100 99 -116 c147 -172 305 -303 424 -351 28 -12 53 -23 55 -24 2 -1 -15 -64
-37 -140 -64 -225 -100 -408 -122 -613 -13 -131 -7 -412 11 -486 l12 -51 -75
-121 c-195 -310 -485 -861 -655 -1244 -403 -911 -637 -1747 -718 -2569 -21
-214 -24 -693 -5 -885 53 -543 170 -958 394 -1399 l70 -140 -59 -54 c-32 -30
-132 -109 -221 -176 -580 -435 -1188 -700 -1742 -757 -144 -15 -434 -6 -561
16 -210 38 -430 116 -547 196 -134 91 -253 239 -311 385 -68 171 -86 298 -79
541 5 208 25 339 83 568 89 353 284 839 478 1195 56 103 70 138 79 196 13 95
3 157 -33 197 -26 29 -34 32 -82 31 -136 -3 -375 -169 -540 -373 -339 -420
-601 -1134 -694 -1891 -22 -180 -25 -615 -6 -760 64 -466 213 -783 455 -966
74 -56 218 -126 303 -148 80 -21 402 -61 684 -86 1500 -131 2626 68 3518 623
161 100 281 186 517 371 368 289 490 366 635 402 59 15 94 15 360 4 636 -27
1097 42 1459 217 315 154 531 422 566 703 7 54 8 56 73 100 655 448 865 1169
597 2053 -53 176 -136 382 -221 548 l-76 149 16 181 c59 636 61 1348 6 1824
-39 329 -106 637 -182 838 l-30 78 18 187 c22 230 25 749 5 917 -28 244 -64
419 -118 584 -37 114 -127 293 -179 357 -43 53 -50 70 -104 258 -251 868 -586
1459 -981 1726 -75 51 -174 97 -227 106 -34 5 -45 14 -72 56 -73 113 -251 264
-416 354 -107 58 -225 104 -269 104 -99 0 -165 -159 -165 -395 l0 -73 -147 81
c-312 170 -625 314 -815 371 -97 30 -214 43 -240 26z"/>
</g>
</svg>
